<mxfile host="app.diagrams.net" modified="2021-09-10T06:56:49.103Z" agent="5.0 (Windows NT 10.0; Win64; x64) AppleWebKit/537.36 (KHTML, like Gecko) Chrome/93.0.4577.63 Safari/537.36" etag="kyKzz0wEW1smAulVJGRN" version="15.1.2" type="github">
  <diagram id="ueHWuMlBntxPt4PXoUES" name="Page-1">
    <mxGraphModel dx="984" dy="636" grid="1" gridSize="10" guides="1" tooltips="1" connect="1" arrows="1" fold="1" page="1" pageScale="1" pageWidth="827" pageHeight="1169" math="0" shadow="0">
      <root>
        <mxCell id="0" />
        <mxCell id="1" parent="0" />
        <mxCell id="hIVKxcEngxZ0RGTXcFYE-4" value="" style="edgeStyle=orthogonalEdgeStyle;rounded=0;orthogonalLoop=1;jettySize=auto;html=1;" parent="1" source="hIVKxcEngxZ0RGTXcFYE-1" edge="1">
          <mxGeometry relative="1" as="geometry">
            <mxPoint x="414" y="220" as="targetPoint" />
          </mxGeometry>
        </mxCell>
        <mxCell id="hIVKxcEngxZ0RGTXcFYE-1" value="进房" style="rounded=1;whiteSpace=wrap;html=1;" parent="1" vertex="1">
          <mxGeometry x="354" y="90" width="120" height="60" as="geometry" />
        </mxCell>
        <mxCell id="hIVKxcEngxZ0RGTXcFYE-11" value="" style="edgeStyle=orthogonalEdgeStyle;rounded=0;orthogonalLoop=1;jettySize=auto;html=1;" parent="1" source="hIVKxcEngxZ0RGTXcFYE-9" target="hIVKxcEngxZ0RGTXcFYE-10" edge="1">
          <mxGeometry relative="1" as="geometry" />
        </mxCell>
        <mxCell id="hIVKxcEngxZ0RGTXcFYE-19" value="N" style="edgeStyle=orthogonalEdgeStyle;rounded=0;orthogonalLoop=1;jettySize=auto;html=1;" parent="1" source="hIVKxcEngxZ0RGTXcFYE-9" target="hIVKxcEngxZ0RGTXcFYE-18" edge="1">
          <mxGeometry relative="1" as="geometry" />
        </mxCell>
        <mxCell id="hIVKxcEngxZ0RGTXcFYE-9" value="自己有火箭" style="rhombus;whiteSpace=wrap;html=1;" parent="1" vertex="1">
          <mxGeometry x="374" y="220" width="80" height="80" as="geometry" />
        </mxCell>
        <mxCell id="hIVKxcEngxZ0RGTXcFYE-13" value="" style="edgeStyle=orthogonalEdgeStyle;rounded=0;orthogonalLoop=1;jettySize=auto;html=1;" parent="1" source="hIVKxcEngxZ0RGTXcFYE-10" target="hIVKxcEngxZ0RGTXcFYE-12" edge="1">
          <mxGeometry relative="1" as="geometry" />
        </mxCell>
        <mxCell id="hIVKxcEngxZ0RGTXcFYE-10" value="倒计时小于5分钟" style="rhombus;whiteSpace=wrap;html=1;" parent="1" vertex="1">
          <mxGeometry x="214" y="220" width="80" height="80" as="geometry" />
        </mxCell>
        <mxCell id="hIVKxcEngxZ0RGTXcFYE-15" value="" style="edgeStyle=orthogonalEdgeStyle;rounded=0;orthogonalLoop=1;jettySize=auto;html=1;" parent="1" source="hIVKxcEngxZ0RGTXcFYE-12" target="hIVKxcEngxZ0RGTXcFYE-14" edge="1">
          <mxGeometry relative="1" as="geometry" />
        </mxCell>
        <mxCell id="hIVKxcEngxZ0RGTXcFYE-12" value="闪烁" style="whiteSpace=wrap;html=1;" parent="1" vertex="1">
          <mxGeometry x="34" y="230" width="120" height="60" as="geometry" />
        </mxCell>
        <mxCell id="hIVKxcEngxZ0RGTXcFYE-17" value="" style="edgeStyle=orthogonalEdgeStyle;rounded=0;orthogonalLoop=1;jettySize=auto;html=1;" parent="1" source="hIVKxcEngxZ0RGTXcFYE-14" target="hIVKxcEngxZ0RGTXcFYE-16" edge="1">
          <mxGeometry relative="1" as="geometry" />
        </mxCell>
        <mxCell id="hIVKxcEngxZ0RGTXcFYE-14" value="小于三分钟" style="rhombus;whiteSpace=wrap;html=1;" parent="1" vertex="1">
          <mxGeometry x="54" y="360" width="80" height="80" as="geometry" />
        </mxCell>
        <mxCell id="hIVKxcEngxZ0RGTXcFYE-16" value="显示跑马灯" style="whiteSpace=wrap;html=1;" parent="1" vertex="1">
          <mxGeometry x="34" y="530" width="120" height="60" as="geometry" />
        </mxCell>
        <mxCell id="hIVKxcEngxZ0RGTXcFYE-21" value="Y" style="edgeStyle=orthogonalEdgeStyle;rounded=0;orthogonalLoop=1;jettySize=auto;html=1;" parent="1" source="hIVKxcEngxZ0RGTXcFYE-18" target="hIVKxcEngxZ0RGTXcFYE-20" edge="1">
          <mxGeometry relative="1" as="geometry" />
        </mxCell>
        <mxCell id="hIVKxcEngxZ0RGTXcFYE-23" value="N" style="edgeStyle=orthogonalEdgeStyle;rounded=0;orthogonalLoop=1;jettySize=auto;html=1;" parent="1" source="hIVKxcEngxZ0RGTXcFYE-18" target="hIVKxcEngxZ0RGTXcFYE-22" edge="1">
          <mxGeometry relative="1" as="geometry" />
        </mxCell>
        <mxCell id="hIVKxcEngxZ0RGTXcFYE-18" value="跑马灯倒计时不为0" style="rhombus;whiteSpace=wrap;html=1;" parent="1" vertex="1">
          <mxGeometry x="374" y="380" width="80" height="80" as="geometry" />
        </mxCell>
        <mxCell id="hIVKxcEngxZ0RGTXcFYE-26" value="" style="edgeStyle=orthogonalEdgeStyle;rounded=0;orthogonalLoop=1;jettySize=auto;html=1;" parent="1" source="hIVKxcEngxZ0RGTXcFYE-20" target="hIVKxcEngxZ0RGTXcFYE-25" edge="1">
          <mxGeometry relative="1" as="geometry" />
        </mxCell>
        <mxCell id="hIVKxcEngxZ0RGTXcFYE-20" value="显示跑马灯" style="whiteSpace=wrap;html=1;" parent="1" vertex="1">
          <mxGeometry x="354" y="550" width="120" height="60" as="geometry" />
        </mxCell>
        <mxCell id="hIVKxcEngxZ0RGTXcFYE-22" value="隐藏火箭入口" style="whiteSpace=wrap;html=1;" parent="1" vertex="1">
          <mxGeometry x="194" y="390" width="120" height="60" as="geometry" />
        </mxCell>
        <mxCell id="hIVKxcEngxZ0RGTXcFYE-24" value="Y" style="text;html=1;align=center;verticalAlign=middle;resizable=0;points=[];autosize=1;strokeColor=none;" parent="1" vertex="1">
          <mxGeometry x="330" y="240" width="20" height="20" as="geometry" />
        </mxCell>
        <mxCell id="hIVKxcEngxZ0RGTXcFYE-28" value="" style="edgeStyle=orthogonalEdgeStyle;rounded=0;orthogonalLoop=1;jettySize=auto;html=1;" parent="1" source="hIVKxcEngxZ0RGTXcFYE-25" target="hIVKxcEngxZ0RGTXcFYE-27" edge="1">
          <mxGeometry relative="1" as="geometry" />
        </mxCell>
        <mxCell id="hIVKxcEngxZ0RGTXcFYE-25" value="开启倒计时" style="whiteSpace=wrap;html=1;" parent="1" vertex="1">
          <mxGeometry x="354" y="690" width="120" height="60" as="geometry" />
        </mxCell>
        <mxCell id="hIVKxcEngxZ0RGTXcFYE-30" value="" style="edgeStyle=orthogonalEdgeStyle;rounded=0;orthogonalLoop=1;jettySize=auto;html=1;" parent="1" source="hIVKxcEngxZ0RGTXcFYE-27" target="hIVKxcEngxZ0RGTXcFYE-29" edge="1">
          <mxGeometry relative="1" as="geometry" />
        </mxCell>
        <mxCell id="hIVKxcEngxZ0RGTXcFYE-27" value="结束" style="rhombus;whiteSpace=wrap;html=1;" parent="1" vertex="1">
          <mxGeometry x="630" y="680" width="80" height="80" as="geometry" />
        </mxCell>
        <mxCell id="hIVKxcEngxZ0RGTXcFYE-29" value="隐藏跑马灯和火箭入口" style="whiteSpace=wrap;html=1;" parent="1" vertex="1">
          <mxGeometry x="610" y="850" width="120" height="60" as="geometry" />
        </mxCell>
        <mxCell id="hIVKxcEngxZ0RGTXcFYE-32" style="edgeStyle=orthogonalEdgeStyle;rounded=0;orthogonalLoop=1;jettySize=auto;html=1;" parent="1" source="hIVKxcEngxZ0RGTXcFYE-31" edge="1">
          <mxGeometry relative="1" as="geometry">
            <mxPoint x="670" y="390" as="targetPoint" />
          </mxGeometry>
        </mxCell>
        <mxCell id="hIVKxcEngxZ0RGTXcFYE-31" value="火箭发射" style="rounded=0;whiteSpace=wrap;html=1;" parent="1" vertex="1">
          <mxGeometry x="610" y="240" width="120" height="60" as="geometry" />
        </mxCell>
        <mxCell id="hIVKxcEngxZ0RGTXcFYE-34" style="edgeStyle=orthogonalEdgeStyle;rounded=0;orthogonalLoop=1;jettySize=auto;html=1;entryX=0.5;entryY=0;entryDx=0;entryDy=0;" parent="1" source="hIVKxcEngxZ0RGTXcFYE-33" target="hIVKxcEngxZ0RGTXcFYE-27" edge="1">
          <mxGeometry relative="1" as="geometry" />
        </mxCell>
        <mxCell id="hIVKxcEngxZ0RGTXcFYE-35" value="Y" style="edgeLabel;html=1;align=center;verticalAlign=middle;resizable=0;points=[];" parent="hIVKxcEngxZ0RGTXcFYE-34" vertex="1" connectable="0">
          <mxGeometry x="-0.381" relative="1" as="geometry">
            <mxPoint as="offset" />
          </mxGeometry>
        </mxCell>
        <mxCell id="hIVKxcEngxZ0RGTXcFYE-33" value="跑马灯的uid" style="rhombus;whiteSpace=wrap;html=1;" parent="1" vertex="1">
          <mxGeometry x="630" y="390" width="80" height="80" as="geometry" />
        </mxCell>
        <mxCell id="_CeDFagytOffiSpbXhyI-2" style="edgeStyle=orthogonalEdgeStyle;rounded=0;orthogonalLoop=1;jettySize=auto;html=1;entryX=1;entryY=0.5;entryDx=0;entryDy=0;" edge="1" parent="1" source="_CeDFagytOffiSpbXhyI-1" target="hIVKxcEngxZ0RGTXcFYE-20">
          <mxGeometry relative="1" as="geometry" />
        </mxCell>
        <mxCell id="_CeDFagytOffiSpbXhyI-1" value="跑马灯开始" style="rounded=1;whiteSpace=wrap;html=1;" vertex="1" parent="1">
          <mxGeometry x="474" y="240" width="120" height="60" as="geometry" />
        </mxCell>
        <mxCell id="_CeDFagytOffiSpbXhyI-5" value="" style="edgeStyle=orthogonalEdgeStyle;rounded=0;orthogonalLoop=1;jettySize=auto;html=1;" edge="1" parent="1" source="_CeDFagytOffiSpbXhyI-3" target="_CeDFagytOffiSpbXhyI-4">
          <mxGeometry relative="1" as="geometry" />
        </mxCell>
        <mxCell id="_CeDFagytOffiSpbXhyI-6" style="edgeStyle=orthogonalEdgeStyle;rounded=0;orthogonalLoop=1;jettySize=auto;html=1;exitX=0;exitY=0.5;exitDx=0;exitDy=0;" edge="1" parent="1" source="_CeDFagytOffiSpbXhyI-3">
          <mxGeometry relative="1" as="geometry">
            <mxPoint x="100" y="1170" as="targetPoint" />
          </mxGeometry>
        </mxCell>
        <mxCell id="_CeDFagytOffiSpbXhyI-8" style="edgeStyle=orthogonalEdgeStyle;rounded=0;orthogonalLoop=1;jettySize=auto;html=1;" edge="1" parent="1" source="_CeDFagytOffiSpbXhyI-3">
          <mxGeometry relative="1" as="geometry">
            <mxPoint x="410" y="1170" as="targetPoint" />
          </mxGeometry>
        </mxCell>
        <mxCell id="_CeDFagytOffiSpbXhyI-3" value="发射" style="rounded=1;whiteSpace=wrap;html=1;" vertex="1" parent="1">
          <mxGeometry x="190" y="1030" width="120" height="60" as="geometry" />
        </mxCell>
        <mxCell id="_CeDFagytOffiSpbXhyI-4" value="更新数量" style="whiteSpace=wrap;html=1;rounded=1;" vertex="1" parent="1">
          <mxGeometry x="190" y="1170" width="120" height="60" as="geometry" />
        </mxCell>
        <mxCell id="_CeDFagytOffiSpbXhyI-7" value="更新跑马灯" style="rounded=1;whiteSpace=wrap;html=1;" vertex="1" parent="1">
          <mxGeometry x="34" y="1170" width="120" height="60" as="geometry" />
        </mxCell>
        <mxCell id="_CeDFagytOffiSpbXhyI-9" value="显示全屏" style="rounded=1;whiteSpace=wrap;html=1;" vertex="1" parent="1">
          <mxGeometry x="334" y="1169" width="120" height="60" as="geometry" />
        </mxCell>
        <mxCell id="_CeDFagytOffiSpbXhyI-13" style="edgeStyle=orthogonalEdgeStyle;rounded=0;orthogonalLoop=1;jettySize=auto;html=1;" edge="1" parent="1" source="_CeDFagytOffiSpbXhyI-10" target="_CeDFagytOffiSpbXhyI-12">
          <mxGeometry relative="1" as="geometry" />
        </mxCell>
        <mxCell id="_CeDFagytOffiSpbXhyI-14" style="edgeStyle=orthogonalEdgeStyle;rounded=0;orthogonalLoop=1;jettySize=auto;html=1;" edge="1" parent="1" source="_CeDFagytOffiSpbXhyI-10">
          <mxGeometry relative="1" as="geometry">
            <mxPoint x="340" y="1450" as="targetPoint" />
          </mxGeometry>
        </mxCell>
        <mxCell id="_CeDFagytOffiSpbXhyI-18" style="edgeStyle=orthogonalEdgeStyle;rounded=0;orthogonalLoop=1;jettySize=auto;html=1;exitX=1;exitY=0.5;exitDx=0;exitDy=0;" edge="1" parent="1" source="_CeDFagytOffiSpbXhyI-10">
          <mxGeometry relative="1" as="geometry">
            <mxPoint x="550" y="1450" as="targetPoint" />
          </mxGeometry>
        </mxCell>
        <mxCell id="_CeDFagytOffiSpbXhyI-20" style="edgeStyle=orthogonalEdgeStyle;rounded=0;orthogonalLoop=1;jettySize=auto;html=1;exitX=1;exitY=0;exitDx=0;exitDy=0;" edge="1" parent="1" source="_CeDFagytOffiSpbXhyI-10">
          <mxGeometry relative="1" as="geometry">
            <mxPoint x="710" y="1450" as="targetPoint" />
          </mxGeometry>
        </mxCell>
        <mxCell id="_CeDFagytOffiSpbXhyI-10" value="获得" style="rounded=1;whiteSpace=wrap;html=1;" vertex="1" parent="1">
          <mxGeometry x="280" y="1320" width="120" height="60" as="geometry" />
        </mxCell>
        <mxCell id="_CeDFagytOffiSpbXhyI-12" value="更新火箭数量" style="rounded=1;whiteSpace=wrap;html=1;" vertex="1" parent="1">
          <mxGeometry x="110" y="1450" width="120" height="60" as="geometry" />
        </mxCell>
        <mxCell id="_CeDFagytOffiSpbXhyI-16" style="edgeStyle=orthogonalEdgeStyle;rounded=0;orthogonalLoop=1;jettySize=auto;html=1;" edge="1" parent="1" source="_CeDFagytOffiSpbXhyI-15">
          <mxGeometry relative="1" as="geometry">
            <mxPoint x="340" y="1590" as="targetPoint" />
          </mxGeometry>
        </mxCell>
        <mxCell id="_CeDFagytOffiSpbXhyI-15" value="自己" style="rhombus;whiteSpace=wrap;html=1;" vertex="1" parent="1">
          <mxGeometry x="300" y="1450" width="80" height="80" as="geometry" />
        </mxCell>
        <mxCell id="_CeDFagytOffiSpbXhyI-17" value="更新本地roomRocketInfo的信息" style="rounded=1;whiteSpace=wrap;html=1;" vertex="1" parent="1">
          <mxGeometry x="280" y="1590" width="120" height="60" as="geometry" />
        </mxCell>
        <mxCell id="_CeDFagytOffiSpbXhyI-19" value="更新跑马灯的rocketId和时间" style="rounded=1;whiteSpace=wrap;html=1;" vertex="1" parent="1">
          <mxGeometry x="480" y="1450" width="120" height="60" as="geometry" />
        </mxCell>
        <mxCell id="_CeDFagytOffiSpbXhyI-21" value="根据的自己的rocketInfo，更新" style="rounded=1;whiteSpace=wrap;html=1;" vertex="1" parent="1">
          <mxGeometry x="650" y="1450" width="120" height="60" as="geometry" />
        </mxCell>
      </root>
    </mxGraphModel>
  </diagram>
</mxfile>
